<?xml version="1.0" standalone="no"?>
<svg xmlns:xlink="http://www.w3.org/1999/xlink" id="wave" style="transform:rotate(180deg); transition: 0.3s" viewBox="0 0 1440 490" version="1.1" xmlns="http://www.w3.org/2000/svg"><defs><linearGradient id="sw-gradient-0" x1="0" x2="0" y1="1" y2="0"><stop stop-color="rgba(24, 76, 153, 1)" offset="0%"/><stop stop-color="rgba(24, 76, 153, 1)" offset="100%"/></linearGradient></defs><path style="transform:translate(0, 0px); opacity:1" fill="url(#sw-gradient-0)" d="M0,147L240,122.5C480,98,960,49,1440,40.8C1920,33,2400,65,2880,106.2C3360,147,3840,196,4320,204.2C4800,212,5280,180,5760,155.2C6240,131,6720,114,7200,122.5C7680,131,8160,163,8640,204.2C9120,245,9600,294,10080,302.2C10560,310,11040,278,11520,269.5C12000,261,12480,278,12960,310.3C13440,343,13920,392,14400,383.8C14880,376,15360,310,15840,261.3C16320,212,16800,180,17280,138.8C17760,98,18240,49,18720,65.3C19200,82,19680,163,20160,196C20640,229,21120,212,21600,196C22080,180,22560,163,23040,171.5C23520,180,24000,212,24480,228.7C24960,245,25440,245,25920,277.7C26400,310,26880,376,27360,408.3C27840,441,28320,441,28800,416.5C29280,392,29760,343,30240,326.7C30720,310,31200,327,31680,343C32160,359,32640,376,33120,383.8C33600,392,34080,392,34320,392L34560,392L34560,490L34320,490C34080,490,33600,490,33120,490C32640,490,32160,490,31680,490C31200,490,30720,490,30240,490C29760,490,29280,490,28800,490C28320,490,27840,490,27360,490C26880,490,26400,490,25920,490C25440,490,24960,490,24480,490C24000,490,23520,490,23040,490C22560,490,22080,490,21600,490C21120,490,20640,490,20160,490C19680,490,19200,490,18720,490C18240,490,17760,490,17280,490C16800,490,16320,490,15840,490C15360,490,14880,490,14400,490C13920,490,13440,490,12960,490C12480,490,12000,490,11520,490C11040,490,10560,490,10080,490C9600,490,9120,490,8640,490C8160,490,7680,490,7200,490C6720,490,6240,490,5760,490C5280,490,4800,490,4320,490C3840,490,3360,490,2880,490C2400,490,1920,490,1440,490C960,490,480,490,240,490L0,490Z"/></svg>